<svg xmlns="http://www.w3.org/2000/svg" width="71" height="66" viewBox="0 0 71 66">
  <g id="Grupo_8" data-name="Grupo 8" transform="translate(0 0)" opacity="0.17">
    <path id="Exclusão_1" data-name="Exclusão 1" d="M50,66H21A21,21,0,0,1,0,45V21A21,21,0,0,1,21,0H50A21,21,0,0,1,71,21V45A21,21,0,0,1,50,66ZM24.065,5.647a18.02,18.02,0,0,0-18,18V42.352a18.02,18.02,0,0,0,18,18h22.87a18.02,18.02,0,0,0,18-18V23.647a18.02,18.02,0,0,0-18-18Z" transform="translate(0 0)"/>
    <path id="União_4" data-name="União 4" d="M0,15.162l.182-.182-.052-.044L12.662,0l5.491,4.608-8.473,10.1,9.175,9.175L13.788,28.95Z" transform="translate(14.805 18.557)"/>
    <path id="União_5" data-name="União 5" d="M0,13.788l.182.182-.053.044L12.662,28.95l5.491-4.608-8.473-10.1,9.175-9.175L13.788,0Z" transform="translate(54.88 47.507) rotate(180)"/>
  </g>
</svg>
