<svg xmlns="http://www.w3.org/2000/svg" xmlns:xlink="http://www.w3.org/1999/xlink" width="509" height="485.215" viewBox="0 0 509 485.215">
  <defs>
    <clipPath id="clip-path">
      <rect id="Retângulo_3" data-name="Retângulo 3" width="509" height="68" transform="translate(0)" fill="#eaeaea"/>
    </clipPath>
    <clipPath id="clip-path-2">
      <path id="Retângulo_4" data-name="Retângulo 4" d="M0,0H509a0,0,0,0,1,0,0V272a15,15,0,0,1-15,15H15A15,15,0,0,1,0,272V0A0,0,0,0,1,0,0Z" transform="translate(0 0.043)" fill="#fff"/>
    </clipPath>
  </defs>
  <g id="Grupo_2" data-name="Grupo 2" transform="translate(-282.119 -203)">
    <g id="Componente_2_1" data-name="Componente 2 – 1" transform="translate(282.119 203)">
      <g id="Grupo_de_máscara_1" data-name="Grupo de máscara 1" clip-path="url(#clip-path)">
        <path id="União_1" data-name="União 1" d="M29,349A29,29,0,0,1,0,320V57.2a29.292,29.292,0,0,1,.241-3.757A24.21,24.21,0,0,1,0,50.03V24A24,24,0,0,1,24,0H485a24,24,0,0,1,24,24V50.03a24.208,24.208,0,0,1-.241,3.415A29.29,29.29,0,0,1,509,57.2V320a29,29,0,0,1-29,29Z" transform="translate(0)" fill="#eaeaea"/>
      </g>
      <circle id="Elipse_1" data-name="Elipse 1" cx="15" cy="15" r="15" transform="translate(28 19)" fill="#f85a5a"/>
      <path id="Caminho_1" data-name="Caminho 1" d="M15,0A15,15,0,1,1,0,15,15,15,0,0,1,15,0Z" transform="translate(70.605 19.416)" fill="#eafe1e"/>
      <circle id="Elipse_3" data-name="Elipse 3" cx="15" cy="15" r="15" transform="translate(113 19)" fill="#41ff1a"/>
      <g id="Grupo_de_máscara_2" data-name="Grupo de máscara 2" transform="translate(0 67.957)" clip-path="url(#clip-path-2)">
        <rect id="Retângulo_5" data-name="Retângulo 5" width="45.893" height="219.758" transform="matrix(0.875, -0.485, 0.485, 0.875, -52.158, 133.457)" fill="#076633"/>
        <rect id="Retângulo_10" data-name="Retângulo 10" width="45.893" height="391.858" transform="matrix(0.875, -0.485, 0.485, 0.875, 0.321, -17.065)" fill="#dddc00"/>
        <rect id="Retângulo_12" data-name="Retângulo 12" width="45.893" height="391.858" transform="matrix(0.875, -0.485, 0.485, 0.875, 147.708, -17.065)" fill="#be1522"/>
        <rect id="Retângulo_15" data-name="Retângulo 15" width="45.893" height="391.858" transform="matrix(0.875, -0.485, 0.485, 0.875, 288.918, -17.948)" fill="#3aaa35"/>
        <rect id="Retângulo_6" data-name="Retângulo 6" width="45.893" height="305.367" transform="matrix(0.875, -0.485, 0.485, 0.875, -47.769, 58.582)" fill="#3aaa35"/>
        <rect id="Retângulo_19" data-name="Retângulo 19" width="45.893" height="305.367" transform="matrix(0.875, -0.485, 0.485, 0.875, -146.616, 58.582)" fill="#3aaa35"/>
        <rect id="Retângulo_9" data-name="Retângulo 9" width="45.893" height="410.391" transform="matrix(0.875, -0.485, 0.485, 0.875, 39.876, -33.275)" fill="#f39200"/>
        <rect id="Retângulo_11" data-name="Retângulo 11" width="45.893" height="410.391" transform="matrix(0.875, -0.485, 0.485, 0.875, 187.264, -33.275)" fill="#951b81"/>
        <rect id="Retângulo_14" data-name="Retângulo 14" width="45.893" height="410.391" transform="matrix(0.875, -0.485, 0.485, 0.875, 330.239, -33.275)" fill="#94c11f"/>
        <rect id="Retângulo_7" data-name="Retângulo 7" width="45.893" height="368.028" transform="matrix(0.875, -0.485, 0.485, 0.875, -37.55, 3.776)" fill="#94c11f"/>
        <rect id="Retângulo_8" data-name="Retângulo 8" width="45.893" height="405.979" transform="matrix(0.875, -0.485, 0.485, 0.875, 87.909, -29.416)" fill="#e94f1c"/>
        <rect id="Retângulo_18" data-name="Retângulo 18" width="45.893" height="405.979" transform="matrix(0.875, -0.485, 0.485, 0.875, 460.35, -29.416)" fill="#e94f1c"/>
        <rect id="Retângulo_13" data-name="Retângulo 13" width="45.893" height="405.979" transform="matrix(0.875, -0.485, 0.485, 0.875, 235.297, -29.416)" fill="#076633"/>
        <rect id="Retângulo_16" data-name="Retângulo 16" width="45.893" height="405.979" transform="matrix(0.875, -0.485, 0.485, 0.875, 380.037, -29.416)" fill="#dddc00"/>
        <rect id="Retângulo_17" data-name="Retângulo 17" width="45.893" height="405.979" transform="matrix(0.875, -0.485, 0.485, 0.875, 415.339, -29.416)" fill="#f39200"/>
      </g>
    </g>
    <path id="Caminho_26" data-name="Caminho 26" d="M50.4-42.8c0-13.1-9.225-19.215-24.345-19.215H9.63V0h8.955V-22.635h7.74C40.41-22.635,50.4-28.305,50.4-42.8Zm-9.45.09c0,10.08-5.9,13.05-14.175,13.05h-8.19v-25.47H26.91C35.145-55.125,40.95-51.84,40.95-42.705ZM56.3,0h25.47V-6.39h-9.63V-25.425C75.2-35.46,80.28-40.68,87.435-40.68h.045v9.9h6.66l1.35-16.65a21.922,21.922,0,0,0-6.93-1.125c-8.415,0-13.275,4.365-16.875,12.24L70.11-47.43H56.3v6.39h7.2V-6.39H56.3Zm65.3-48.555c-13.59,0-20.925,10.17-20.925,24.885,0,15.075,7.245,24.8,20.835,24.8,13.5,0,20.835-10.17,20.835-24.885C142.335-38.835,135.18-48.555,121.59-48.555Zm0,6.885c7.695,0,11.61,5.67,11.61,17.91,0,12.285-3.915,18-11.7,18s-11.7-5.715-11.7-17.91C109.8-36,113.805-41.67,121.59-41.67Zm53.19-28.44a5.629,5.629,0,0,0-5.9,5.715,5.66,5.66,0,0,0,5.9,5.85,5.721,5.721,0,0,0,6.03-5.85A5.692,5.692,0,0,0,174.78-70.11Zm7.425,22.68H154.26v6.57h19.305V-8.055c0,12.915-9.495,18.135-23.58,20.61l1.4,6.66C171,15.84,182.205,8.01,182.205-8.64ZM204.57-20.79H236.3c.09-1.125.18-2.7.18-4.32,0-14.535-7.515-23.445-19.755-23.445-13.005,0-21.15,10.575-21.15,24.885,0,14.76,7.965,24.8,22.23,24.8a27.1,27.1,0,0,0,16.74-5.76l-3.915-5.445c-4.1,2.79-7.83,4.23-12.555,4.23C210.915-5.85,205.065-10.35,204.57-20.79Zm12.24-21.015c6.93,0,11.16,5.085,11.34,14.715H204.57C205.2-37.125,210.06-41.805,216.81-41.805ZM266.9-6.165c-7.785,0-13.455-5.04-13.455-17.325,0-12.24,5.58-18,13.5-18a20.939,20.939,0,0,1,11.97,4.14l4.095-5.625a24.7,24.7,0,0,0-16.11-5.58c-14.4,0-22.725,10.71-22.725,25.065,0,14.85,8.235,24.615,22.59,24.615A26.538,26.538,0,0,0,283.1-4.68l-4.14-5.625A20.731,20.731,0,0,1,266.9-6.165Zm63.72,3.735-3.24-5.805a18.572,18.572,0,0,1-8.955,2.25c-6.21,0-8.685-2.655-8.685-7.875V-40.95h15.21l.99-6.48h-16.2V-59.175L301.1-58.14v10.71H290.34v6.48H301.1v27.18c0,8.82,5.76,14.9,16.335,14.9A25.675,25.675,0,0,0,330.615-2.43ZM355.95-5.76a22.149,22.149,0,0,1-14.175-5.13l-4.77,5.49c4.185,3.645,10.3,6.525,18.945,6.525,10.485,0,20.43-4.23,20.43-14.4,0-8.955-6.12-12.2-15.39-14.715-9.54-2.61-12.375-4.05-12.375-7.965,0-3.465,2.7-5.805,9.72-5.805a23.418,23.418,0,0,1,13.68,4.185l3.69-5.625c-4.05-3.015-9.765-5.355-17.55-5.355-11.115,0-18.4,5.175-18.4,13.23,0,8.28,6.255,11.385,15.93,13.815,9.945,2.52,11.43,4.635,11.43,8.73C367.11-8.46,362.835-5.76,355.95-5.76Z" transform="translate(346.119 669)" fill="#4b4b4b"/>
  </g>
</svg>
