<svg id="github-logo" xmlns="http://www.w3.org/2000/svg" width="87.766" height="85.619" viewBox="0 0 87.766 85.619">
  <path id="Caminho_2" data-name="Caminho 2" d="M81.879,27.221a43.692,43.692,0,0,0-15.97-15.97A42.922,42.922,0,0,0,43.882,5.365,42.926,42.926,0,0,0,21.856,11.25a43.687,43.687,0,0,0-15.97,15.97A42.925,42.925,0,0,0,0,49.246a42.647,42.647,0,0,0,8.371,25.8A42.978,42.978,0,0,0,30,90.9a2.557,2.557,0,0,0,2.285-.4,2.234,2.234,0,0,0,.743-1.713q0-.171-.029-3.085t-.029-5.084l-1.314.227a16.764,16.764,0,0,1-3.171.2,24.161,24.161,0,0,1-3.971-.4,8.873,8.873,0,0,1-3.828-1.713,7.25,7.25,0,0,1-2.514-3.513L17.6,74.1a14.278,14.278,0,0,0-1.8-2.914,6.9,6.9,0,0,0-2.485-2.171l-.4-.286a4.2,4.2,0,0,1-.743-.686,3.135,3.135,0,0,1-.514-.8q-.172-.4.286-.658a3.706,3.706,0,0,1,1.657-.255l1.142.171a8.34,8.34,0,0,1,2.828,1.371,9.222,9.222,0,0,1,2.771,2.97,10.072,10.072,0,0,0,3.171,3.572,6.727,6.727,0,0,0,3.742,1.228,16.249,16.249,0,0,0,3.257-.285,11.365,11.365,0,0,0,2.571-.858,9.258,9.258,0,0,1,2.8-5.886,39.125,39.125,0,0,1-5.857-1.029,23.319,23.319,0,0,1-5.37-2.229,15.382,15.382,0,0,1-4.6-3.828,18.4,18.4,0,0,1-3-6,28.53,28.53,0,0,1-1.171-8.571A16.666,16.666,0,0,1,20.4,35.189q-2.115-5.2.4-11.656,1.657-.515,4.914.771a34.355,34.355,0,0,1,4.771,2.2q1.515.913,2.429,1.543a41.266,41.266,0,0,1,21.942,0l2.171-1.371a30.751,30.751,0,0,1,5.256-2.515q3.028-1.142,4.63-.628,2.57,6.457.456,11.656A16.669,16.669,0,0,1,71.881,46.96a28.849,28.849,0,0,1-1.171,8.6,17.682,17.682,0,0,1-3.027,6,15.974,15.974,0,0,1-4.629,3.8,23.364,23.364,0,0,1-5.371,2.229,39.083,39.083,0,0,1-5.856,1.03q2.97,2.57,2.97,8.113V88.785a2.276,2.276,0,0,0,.715,1.713,2.482,2.482,0,0,0,2.257.4A42.972,42.972,0,0,0,79.4,75.042a42.656,42.656,0,0,0,8.37-25.8A42.96,42.96,0,0,0,81.879,27.221Z" transform="translate(0 -5.365)" fill="#adacac"/>
</svg>
