<svg xmlns="http://www.w3.org/2000/svg" width="86" height="81" viewBox="0 0 86 81">
  <g id="Grupo_34" data-name="Grupo 34" transform="translate(-1574 -743)">
    <g id="Grupo_3" data-name="Grupo 3" transform="translate(74)">
      <path id="União_2" data-name="União 2" d="M17,81A17,17,0,0,1,0,64V17A17,17,0,0,1,17,0H69A17,17,0,0,1,86,17V64A17,17,0,0,1,69,81Zm49.4-4.405a15.018,15.018,0,0,0,15-15V19.406a15.018,15.018,0,0,0-15-15H56.975V76.595Zm-13.729,0V4.405H30.817V76.595ZM4.6,19.406V61.594a15.018,15.018,0,0,0,15,15h6.921V4.405H19.6A15.018,15.018,0,0,0,4.6,19.406Z" transform="translate(1500 743)" fill="#bebebe"/>
      <rect id="Retângulo_24" data-name="Retângulo 24" width="16" height="15" rx="2" transform="translate(1507 758)" fill="#bebebe"/>
      <rect id="Retângulo_25" data-name="Retângulo 25" width="16" height="14" rx="3" transform="translate(1507 776)" fill="#bebebe"/>
      <rect id="Retângulo_26" data-name="Retângulo 26" width="16" height="15" rx="2" transform="translate(1534 758)" fill="#bebebe"/>
      <rect id="Retângulo_27" data-name="Retângulo 27" width="15" height="15" rx="2" transform="translate(1562 758)" fill="#bebebe"/>
      <rect id="Retângulo_28" data-name="Retângulo 28" width="15" height="14" rx="2" transform="translate(1562 776)" fill="#bebebe"/>
      <rect id="Retângulo_29" data-name="Retângulo 29" width="15" height="16" rx="2" transform="translate(1562 793)" fill="#bebebe"/>
    </g>
  </g>
</svg>
