<svg xmlns="http://www.w3.org/2000/svg" width="45.064" height="66.272" viewBox="0 0 45.064 66.272">
  <g id="Grupo_9" data-name="Grupo 9" transform="translate(0)" opacity="0.16">
    <path id="Exclusão_2" data-name="Exclusão 2" d="M43,52H2a2,2,0,0,1-2-2V2A2,2,0,0,1,2,0H43a2,2,0,0,1,2,2V50A2,2,0,0,1,43,52ZM6.42,4.72a2,2,0,0,0-2,2V45.28a2,2,0,0,0,2,2H38.58a2,2,0,0,0,2-2V6.72a2,2,0,0,0-2-2Z" transform="translate(0 0.196)"/>
    <path id="Caminho_7" data-name="Caminho 7" d="M17.481,13.736,48.107,0a1.94,1.94,0,0,1,1.94,1.94V50.6a1.94,1.94,0,0,1-1.94,1.94L17.481,66.272a1.94,1.94,0,0,1-1.94-1.94V15.675A1.94,1.94,0,0,1,17.481,13.736Z" transform="translate(-4.982)"/>
  </g>
</svg>
