<svg xmlns="http://www.w3.org/2000/svg" width="35" height="35" viewBox="0 0 35 35">
  <g id="Grupo_36" data-name="Grupo 36" transform="translate(-1780.5 -955)">
    <path id="União_11" data-name="União 11" d="M-3951.914-1520.414v-8.671h-8.671A4.414,4.414,0,0,1-3965-1533.5a4.414,4.414,0,0,1,4.414-4.414h8.671v-8.672A4.414,4.414,0,0,1-3947.5-1551a4.414,4.414,0,0,1,4.414,4.414v8.672h8.671A4.414,4.414,0,0,1-3930-1533.5a4.414,4.414,0,0,1-4.414,4.414h-8.671v8.671A4.414,4.414,0,0,1-3947.5-1516,4.414,4.414,0,0,1-3951.914-1520.414Z" transform="translate(5745.5 2506)" fill="#fff"/>
  </g>
</svg>
